<?xml version="1.0" encoding="utf-8"?>
<!-- Generator: Adobe Illustrator 16.0.0, SVG Export Plug-In . SVG Version: 6.00 Build 0)  -->
<!DOCTYPE svg PUBLIC "-//W3C//DTD SVG 1.1//EN" "http://www.w3.org/Graphics/SVG/1.1/DTD/svg11.dtd">
<svg version="1.1" id="Layer_1" xmlns="http://www.w3.org/2000/svg" xmlns:xlink="http://www.w3.org/1999/xlink" x="0px" y="0px"
	 width="512px" height="136.008px" viewBox="0 0 512 136.008" enable-background="new 0 0 512 136.008" xml:space="preserve">
<g>
	<path fill="#1428A0" d="M50.885,52.387c-0.308-1.279-0.235-2.63-0.064-3.333c0.434-2.022,1.807-4.277,5.809-4.277
		c3.713,0,5.898,2.307,5.898,5.764c0,1.174,0,3.93,0,3.93h15.831v-4.458c0-13.808-12.448-16.009-21.422-16.009
		c-11.274,0-20.485,3.742-22.17,14.107c-0.461,2.845-0.54,5.348,0.126,8.555c2.749,12.977,25.306,16.729,28.587,24.939
		c0.615,1.526,0.429,3.487,0.124,4.687c-0.521,2.135-1.953,4.287-6.198,4.287c-3.965,0-6.337-2.31-6.337-5.777l-0.022-6.107H34.017
		v4.853c0,14.191,11.145,18.459,23.071,18.459c11.468,0,20.886-3.908,22.421-14.53c0.764-5.475,0.19-9.038-0.066-10.39
		C76.764,63.763,52.692,59.816,50.885,52.387z M257.299,52.542c-0.283-1.253-0.201-2.584-0.057-3.28
		c0.455-2.032,1.82-4.248,5.754-4.248c3.666,0,5.814,2.285,5.814,5.715c0,1.157,0,3.881,0,3.881h15.646v-4.424
		c0-13.675-12.26-15.824-21.137-15.824c-11.18,0-20.311,3.687-21.979,13.975c-0.44,2.801-0.55,5.286,0.151,8.458
		c2.719,12.83,25.054,16.552,28.296,24.666c0.572,1.537,0.408,3.497,0.115,4.652c-0.484,2.111-1.904,4.235-6.115,4.235
		c-3.951,0-6.326-2.271-6.326-5.693l-0.006-6.091h-16.842v4.843c0,14.028,10.989,18.263,22.825,18.263
		c11.336,0,20.699-3.873,22.199-14.375c0.717-5.425,0.178-8.958-0.111-10.288C282.905,63.847,259.1,59.889,257.299,52.542z
		 M401.416,87.125l-14.947-51.101h-23.553v62.807h15.582l-0.904-52.734l16.051,52.734h22.59V36.024h-15.684L401.416,87.125z
		 M101.965,36.024L90.208,99.493h17.146l8.859-58.755l8.646,58.755h17.024l-11.705-63.469H101.965z M197.832,36.024l-8.007,49.612
		l-8.002-49.612H155.93l-1.373,63.469h15.862l0.43-58.755l10.914,58.755h16.094l10.924-58.755l0.431,58.755h15.903l-1.42-63.469
		H197.832z M345.319,36.024h-16.051v46.954c0.023,0.816,0,1.737-0.143,2.411c-0.336,1.576-1.67,4.608-6.1,4.608
		c-4.371,0-5.742-3.032-6.051-4.608c-0.162-0.674-0.184-1.595-0.162-2.411V36.024h-16.047v45.496
		c-0.02,1.173,0.07,3.569,0.141,4.196c1.109,11.854,10.453,15.704,22.119,15.704c11.689,0,21.027-3.85,22.156-15.704
		c0.09-0.627,0.205-3.023,0.135-4.196V36.024H345.319z M455.533,63.868v9.256h6.506v9.186c0.018,0.819-0.025,1.706-0.168,2.414
		c-0.258,1.713-1.885,4.63-6.502,4.63c-4.592,0-6.189-2.917-6.467-4.63c-0.115-0.708-0.164-1.595-0.164-2.414V53.302
		c0-1.026,0.066-2.148,0.285-2.999c0.314-1.547,1.686-4.596,6.311-4.596c4.855,0,6.068,3.215,6.344,4.596
		c0.186,0.914,0.193,2.447,0.193,2.447v3.521h15.986v-2.082c0,0,0.07-2.173-0.123-4.201c-1.201-11.906-11.012-15.672-22.26-15.672
		c-11.268,0-20.879,3.801-22.279,15.672c-0.125,1.085-0.32,3.038-0.32,4.201v26.684c0,1.162,0.039,2.063,0.254,4.188
		c1.043,11.578,11.078,15.683,22.303,15.683c11.293,0,21.258-4.104,22.318-15.683c0.189-2.125,0.207-3.024,0.232-4.188V63.868
		H455.533z"/>
</g>
</svg>
